<svg width="10" height="10" viewBox="0 0 10 10" fill="none" xmlns="http://www.w3.org/2000/svg">
<path d="M5 0C2.2428 0 0 2.2432 0 5C0 7.7568 2.243 10 5 10C7.7572 10 10 7.7568 10 5C10 2.2432 7.757 0 5 0ZM5 9.0002C2.7942 9.0002 0.9998 7.2058 0.9998 5C0.9998 2.7946 2.794 1.0002 5 1.0002C7.2056 1.0002 8.9998 2.7946 8.9998 5C8.9996 7.2058 7.2054 9.0002 5 9.0002Z" fill="white"/>
<path d="M3.68283 3.4674C3.86805 3.27104 4.08943 3.11227 4.33483 2.9998C4.58531 2.88473 4.85798 2.82601 5.13363 2.8278C5.48343 2.8278 5.80443 2.9112 6.09703 3.078C6.38546 3.24112 6.63122 3.47016 6.81423 3.7464L7.52703 3.2134C7.25623 2.84368 6.90437 2.54088 6.49843 2.3282C6.08603 2.1094 5.63083 2 5.13343 2C4.72363 2 4.33843 2.0792 3.97803 2.238C3.62574 2.39035 3.30581 2.60859 3.03543 2.881C2.76543 3.15504 2.54989 3.47781 2.40023 3.8322C2.24443 4.195 2.16663 4.5848 2.16663 5.0002C2.16663 5.4152 2.24443 5.8046 2.40023 6.1684C2.54973 6.52264 2.7653 6.84518 3.03543 7.1188C3.30583 7.39139 3.62575 7.60989 3.97803 7.7626C4.33863 7.9206 4.72383 8 5.13343 8C5.63083 8 6.08583 7.8906 6.49843 7.6716C6.90459 7.45925 7.25651 7.15638 7.52703 6.7864L6.81423 6.2542C6.63091 6.53003 6.38522 6.75881 6.09703 6.922C5.80443 7.0886 5.48343 7.172 5.13363 7.172C4.85797 7.17388 4.58527 7.11517 4.33483 7C4.08939 6.8876 3.868 6.72882 3.68283 6.5324C3.49723 6.3364 3.34963 6.1062 3.24023 5.8442C3.13083 5.5822 3.07623 5.3004 3.07623 5.0002C3.07623 4.6994 3.13083 4.418 3.24023 4.1558C3.34963 3.8936 3.49723 3.6642 3.68283 3.4674" fill="white"/>
</svg>
