<svg width="39" height="38" viewBox="0 0 39 38" fill="none" xmlns="http://www.w3.org/2000/svg">
<path d="M33.0066 4.58624H6.04107C5.39257 4.58624 4.86865 5.11017 4.86865 5.75866V32.7242C4.86865 33.3727 5.39257 33.8966 6.04107 33.8966H33.0066C33.6551 33.8966 34.179 33.3727 34.179 32.7242V5.75866C34.179 5.11017 33.6551 4.58624 33.0066 4.58624ZM29.6212 13.1412H27.2801C25.4445 13.1412 25.0891 14.0132 25.0891 15.2955V18.1203H29.471L28.8995 22.5425H25.0891V33.8966H20.5204V22.5462H16.699V18.1203H20.5204V14.8595C20.5204 11.0748 22.8322 9.0121 26.2102 9.0121C27.8296 9.0121 29.2182 9.13301 29.6249 9.18797V13.1412H29.6212Z" fill="#260F09"/>
</svg>
