<svg width="31" height="31" viewBox="0 0 31 31" fill="none" xmlns="http://www.w3.org/2000/svg">
<path d="M26.0309 25.4775H20.1385V17.3105H22.7149H23.1545L23.2108 16.8746L23.6723 13.3042L23.7452 12.7401H23.1764H20.1385V10.9594C20.1385 10.463 20.2136 10.1853 20.3499 10.0234C20.4698 9.88088 20.733 9.72007 21.4075 9.72007H23.2977H23.3006H23.8006V9.22007V6.02832V5.59134L23.3676 5.53282C23.0136 5.48498 21.8698 5.38633 20.5437 5.38633C19.0785 5.38633 17.7931 5.83538 16.8725 6.7454C15.9504 7.65695 15.4498 8.97618 15.4498 10.6074V12.7401H12.8646H12.3646V13.2401V16.8134V17.3134H12.8646H15.4498V25.4775H4.25957C4.01213 25.4775 3.81299 25.2784 3.81299 25.0309V3.25957C3.81299 3.01213 4.01213 2.81299 4.25957 2.81299H26.0309C26.2784 2.81299 26.4775 3.01213 26.4775 3.25957V25.0309C26.4775 25.2784 26.2784 25.4775 26.0309 25.4775Z" stroke="#260F09"/>
</svg>
