<svg width="116" height="116" viewBox="0 0 116 116" fill="none" xmlns="http://www.w3.org/2000/svg">
<circle cx="58" cy="58" r="58" fill="#DBBC93"/>
<path d="M28.5011 75.54C30.2211 75.3 31.6611 74.7 32.8211 73.74V41.7C31.4211 41.74 29.8011 41.84 27.9611 42L26.7611 42.06C26.1211 42.94 25.5811 44.04 25.1411 45.36C24.7411 46.64 24.5211 47.86 24.4811 49.02C23.7611 49.14 23.0411 49.2 22.3211 49.2C21.6811 49.2 21.0211 49.14 20.3411 49.02V37.74C26.5011 37.9 32.1211 37.98 37.2011 37.98C40.2411 37.98 43.4211 37.96 46.7411 37.92C50.1011 37.84 52.5611 37.78 54.1211 37.74V49.02C53.4811 49.14 52.8211 49.2 52.1411 49.2C51.4211 49.2 50.7011 49.14 49.9811 49.02C49.8211 47.7 49.5411 46.44 49.1411 45.24C48.7811 44 48.3411 42.96 47.8211 42.12C45.8211 41.84 43.7611 41.68 41.6411 41.64V73.74C42.4811 74.54 43.9811 75.14 46.1411 75.54L45.7211 78H28.2611L28.5011 75.54ZM81.7595 78.42C79.5195 78.42 77.2795 78.16 75.0395 77.64C72.7995 77.12 70.7395 76.36 68.8595 75.36V66.24L74.3195 65.22C74.4395 66.9 74.6795 68.62 75.0395 70.38C75.4395 72.1 75.8395 73.34 76.2395 74.1C78.0395 74.78 79.6995 75.12 81.2195 75.12C82.9395 75.12 84.3195 74.6 85.3595 73.56C86.4395 72.48 86.9795 71 86.9795 69.12C86.9795 67.28 86.3795 65.72 85.1795 64.44C83.9795 63.16 82.0795 61.96 79.4795 60.84C76.7995 59.68 74.6995 58.56 73.1795 57.48C71.6595 56.36 70.5595 55.1 69.8795 53.7C69.2395 52.26 68.9195 50.52 68.9195 48.48C68.9195 46.4 69.4995 44.54 70.6595 42.9C71.8195 41.22 73.4195 39.9 75.4595 38.94C77.4995 37.98 79.7995 37.5 82.3595 37.5C84.5995 37.5 86.6595 37.86 88.5395 38.58C90.4595 39.26 91.9595 40.2 93.0395 41.4C94.1595 42.6 94.7195 43.9 94.7195 45.3C94.7195 46.66 94.3595 47.74 93.6395 48.54C92.9195 49.34 91.9795 49.74 90.8195 49.74C89.3395 49.74 87.8195 49.14 86.2595 47.94C87.2595 46.82 87.7595 45.62 87.7595 44.34C87.7595 43.22 87.2795 42.34 86.3195 41.7C85.3995 41.06 84.1195 40.74 82.4795 40.74C80.7995 40.74 79.4395 41.18 78.3995 42.06C77.3995 42.94 76.8995 44.1 76.8995 45.54C76.8995 46.74 77.1395 47.78 77.6195 48.66C78.0995 49.54 78.9195 50.38 80.0795 51.18C81.2795 51.98 82.9595 52.86 85.1195 53.82C88.8795 55.46 91.5395 57.22 93.0995 59.1C94.6995 60.98 95.4995 63.4 95.4995 66.36C95.4995 70.08 94.2395 73.02 91.7195 75.18C89.2395 77.34 85.9195 78.42 81.7595 78.42Z" fill="#260F09"/>
</svg>
