<svg width="26" height="25" viewBox="0 0 26 25" fill="none" xmlns="http://www.w3.org/2000/svg">
<path d="M21.9976 5.82361C21.9976 4.70049 21.0591 3.82573 19.9398 3.82573C18.8205 3.82573 17.882 4.70049 17.882 5.82361C17.882 6.94668 18.8204 7.82141 19.9396 7.8215C20.2072 7.82177 20.4727 7.77133 20.721 7.67261C20.9694 7.57383 21.1964 7.4284 21.3885 7.24374C21.5805 7.05904 21.7339 6.83865 21.8389 6.59464C21.9437 6.35079 21.9979 6.08872 21.9976 5.82361ZM21.9976 5.82361H21.4978L21.9976 5.82296C21.9976 5.82318 21.9976 5.8234 21.9976 5.82361ZM25.4146 7.36542L25.4148 7.36947C25.5024 8.86622 25.5007 10.3534 25.499 11.8673C25.4988 12.0777 25.4985 12.2885 25.4985 12.5C25.4985 12.737 25.4989 12.9731 25.4993 13.2086C25.5015 14.6969 25.5038 16.1584 25.4149 17.6296L25.4149 17.6296L25.4146 17.6346C25.3172 19.5689 24.8676 21.1963 23.4698 22.5404C22.0716 23.8848 20.3652 24.3241 18.3425 24.4183L18.3388 24.4185C16.7803 24.5028 15.2318 24.5012 13.6575 24.4995C13.4388 24.4993 13.2196 24.4991 12.9998 24.4991C12.7804 24.4991 12.5615 24.4993 12.3431 24.4995C10.771 24.5012 9.22206 24.5028 7.66069 24.4185L7.65699 24.4183C5.63409 24.3241 3.9311 23.8879 2.52971 22.5404C1.13507 21.1993 0.682316 19.5686 0.58489 17.6346L0.584906 17.6346L0.584669 17.6305C0.497088 16.1337 0.498777 14.644 0.500491 13.1316C0.500729 12.9215 0.500967 12.711 0.500967 12.5C0.500967 12.289 0.500729 12.0785 0.500491 11.8685C0.498776 10.3566 0.49709 8.869 0.584672 7.36942L0.584688 7.36942L0.58489 7.36542C0.682328 5.43113 1.13192 3.80369 2.52971 2.45964C3.92794 1.11515 5.63431 0.675901 7.65699 0.581694L7.657 0.581708L7.66074 0.581505C9.21918 0.497196 10.7677 0.49882 12.3419 0.500471C12.5607 0.5007 12.7799 0.50093 12.9998 0.50093C13.2191 0.50093 13.438 0.5007 13.6564 0.500471C15.2285 0.49882 16.7775 0.497193 18.3388 0.581521L18.3425 0.581694C20.3654 0.675911 22.0684 1.11212 23.4698 2.45964C24.8645 3.80066 25.3172 5.43136 25.4146 7.36542ZM9.16141 12.5C9.16141 10.4991 10.8669 8.83156 12.9965 8.83156C15.1261 8.83156 16.8316 10.4991 16.8316 12.5C16.8316 14.5009 15.1261 16.1684 12.9965 16.1684C10.8669 16.1684 9.16141 14.5009 9.16141 12.5ZM18.3658 0.0823703L18.3658 0.082235L18.3658 0.0823703ZM5.82637 12.5C5.82637 16.3437 9.04784 19.4137 12.9965 19.4137C16.9452 19.4137 20.1666 16.3437 20.1666 12.5C20.1666 8.65629 16.9452 5.58629 12.9965 5.58629C9.04784 5.58629 5.82637 8.65629 5.82637 12.5Z" stroke="#260F09"/>
</svg>
