<svg width="38" height="38" viewBox="0 0 38 38" fill="none" xmlns="http://www.w3.org/2000/svg">
<path d="M18.7588 13.8748C16.0696 13.8748 13.875 16.0694 13.875 18.7586C13.875 21.4478 16.0696 23.6424 18.7588 23.6424C21.448 23.6424 23.6426 21.4478 23.6426 18.7586C23.6426 16.0694 21.448 13.8748 18.7588 13.8748ZM33.4066 18.7586C33.4066 16.7362 33.425 14.7321 33.3114 12.7134C33.1978 10.3685 32.6629 8.28749 30.9482 6.57284C29.2299 4.85452 27.1525 4.32327 24.8077 4.20969C22.7853 4.09611 20.7812 4.11443 18.7625 4.11443C16.74 4.11443 14.736 4.09611 12.7172 4.20969C10.3724 4.32327 8.29134 4.85818 6.57668 6.57284C4.85836 8.29116 4.32711 10.3685 4.21354 12.7134C4.09996 14.7358 4.11828 16.7399 4.11828 18.7586C4.11828 20.7774 4.09996 22.7851 4.21354 24.8039C4.32711 27.1487 4.86203 29.2297 6.57668 30.9444C8.295 32.6627 10.3724 33.194 12.7172 33.3075C14.7396 33.4211 16.7437 33.4028 18.7625 33.4028C20.7849 33.4028 22.789 33.4211 24.8077 33.3075C27.1525 33.194 29.2336 32.659 30.9482 30.9444C32.6666 29.2261 33.1978 27.1487 33.3114 24.8039C33.4286 22.7851 33.4066 20.781 33.4066 18.7586V18.7586ZM18.7588 26.273C14.6004 26.273 11.2444 22.917 11.2444 18.7586C11.2444 14.6002 14.6004 11.2442 18.7588 11.2442C22.9172 11.2442 26.2732 14.6002 26.2732 18.7586C26.2732 22.917 22.9172 26.273 18.7588 26.273ZM26.581 12.6914C25.6101 12.6914 24.826 11.9073 24.826 10.9364C24.826 9.96551 25.6101 9.18146 26.581 9.18146C27.5519 9.18146 28.336 9.96551 28.336 10.9364C28.3362 11.167 28.291 11.3953 28.203 11.6083C28.1149 11.8214 27.9856 12.015 27.8226 12.178C27.6596 12.341 27.466 12.4703 27.2529 12.5584C27.0399 12.6465 26.8115 12.6917 26.581 12.6914V12.6914Z" fill="#260F09"/>
</svg>
