<svg width="77" height="66" viewBox="0 0 77 66" fill="none" xmlns="http://www.w3.org/2000/svg">
<path d="M24.2852 18.1328C23.862 18.4062 23.4193 18.6374 22.957 18.8262C22.5013 19.0085 22.0293 19.1549 21.541 19.2656C21.0527 19.3763 20.5514 19.4544 20.0371 19.5C19.5228 19.5456 19.002 19.5684 18.4746 19.5684C17.8105 19.5684 17.1107 19.5358 16.375 19.4707C15.6393 19.3991 14.9069 19.3242 14.1777 19.2461C13.4551 19.168 12.7552 19.0964 12.0781 19.0312C11.401 18.9596 10.7891 18.9238 10.2422 18.9238C9.44141 18.9238 8.71224 19.028 8.05469 19.2363C7.39714 19.4382 6.83398 19.7279 6.36523 20.1055C5.89648 20.4766 5.5319 20.9258 5.27148 21.4531C5.01758 21.974 4.89062 22.5566 4.89062 23.2012C4.89062 23.6504 4.96549 24.0573 5.11523 24.4219C5.27148 24.7799 5.48958 25.0827 5.76953 25.3301C6.05599 25.5775 6.39779 25.7695 6.79492 25.9062C7.19206 26.0365 7.63151 26.1016 8.11328 26.1016C8.52995 26.1016 8.95964 26.0527 9.40234 25.9551C9.84505 25.8509 10.2812 25.6979 10.7109 25.4961L10.916 25.8965C10.4798 26.1504 9.97526 26.3522 9.40234 26.502C8.83594 26.6517 8.26302 26.7266 7.68359 26.7266C7.18229 26.7266 6.70052 26.6549 6.23828 26.5117C5.77604 26.3685 5.36263 26.1536 4.99805 25.8672C4.63997 25.5742 4.35352 25.2096 4.13867 24.7734C3.92383 24.3307 3.81641 23.8132 3.81641 23.2207C3.81641 22.6348 3.9043 22.1107 4.08008 21.6484C4.25586 21.1797 4.49674 20.7663 4.80273 20.4082C5.10872 20.0436 5.4668 19.7344 5.87695 19.4805C6.28711 19.2266 6.72656 19.0182 7.19531 18.8555C7.67057 18.6862 8.16211 18.5658 8.66992 18.4941C9.17773 18.416 9.68229 18.377 10.1836 18.377C10.7826 18.377 11.4238 18.4128 12.1074 18.4844C12.7975 18.556 13.5007 18.6341 14.2168 18.7188C14.9329 18.7969 15.6523 18.8717 16.375 18.9434C17.0977 19.015 17.7975 19.0508 18.4746 19.0508C18.9824 19.0508 19.4837 19.0312 19.9785 18.9922C20.4733 18.9466 20.9518 18.8717 21.4141 18.7676C21.8828 18.6634 22.332 18.5267 22.7617 18.3574C23.1979 18.1816 23.6146 17.9635 24.0117 17.7031L24.2852 18.1328ZM17.4297 20.4277C16.8763 21.0918 16.3848 21.7884 15.9551 22.5176C15.5319 23.2402 15.138 23.9661 14.7734 24.6953C14.4154 25.4245 14.0736 26.1471 13.748 26.8633C13.4225 27.5729 13.084 28.25 12.7324 28.8945C12.3809 29.5326 12.0033 30.125 11.5996 30.6719C11.2025 31.2122 10.7467 31.681 10.2324 32.0781C9.72461 32.4753 9.14193 32.7845 8.48438 33.0059C7.83333 33.2337 7.08464 33.3477 6.23828 33.3477C5.48958 33.3477 4.82552 33.25 4.24609 33.0547C3.67318 32.8659 3.19141 32.6022 2.80078 32.2637C2.41016 31.9316 2.11393 31.541 1.91211 31.0918C1.71029 30.6361 1.60938 30.1445 1.60938 29.6172C1.60938 29.4154 1.6224 29.2233 1.64844 29.041C1.67448 28.8587 1.71354 28.6927 1.76562 28.543L2.25391 28.6895C2.21484 28.8197 2.18229 28.9661 2.15625 29.1289C2.13021 29.2852 2.11719 29.4479 2.11719 29.6172C2.11719 30.1576 2.23112 30.6296 2.45898 31.0332C2.68685 31.4368 2.98633 31.7721 3.35742 32.0391C3.72852 32.306 4.15169 32.5046 4.62695 32.6348C5.10221 32.7715 5.58724 32.8398 6.08203 32.8398C6.79818 32.8398 7.43294 32.7161 7.98633 32.4688C8.54622 32.2214 9.05404 31.8861 9.50977 31.4629C9.96549 31.0332 10.3789 30.5319 10.75 29.959C11.1276 29.3861 11.4922 28.7708 11.8438 28.1133C12.1953 27.4557 12.5469 26.7721 12.8984 26.0625C13.2565 25.3529 13.6406 24.6497 14.0508 23.9531C14.4674 23.2565 14.9232 22.5859 15.418 21.9414C15.9128 21.2904 16.4792 20.6979 17.1172 20.1641L17.4297 20.4277ZM16.6289 29.7734C16.6159 29.8516 16.6061 29.9297 16.5996 30.0078C16.5931 30.0859 16.5898 30.1641 16.5898 30.2422C16.5898 30.4766 16.6224 30.7012 16.6875 30.916C16.7591 31.1243 16.86 31.3099 16.9902 31.4727C17.127 31.6289 17.293 31.7526 17.4883 31.8438C17.6901 31.9349 17.918 31.9805 18.1719 31.9805C19.0247 31.9805 19.8483 31.6908 20.6426 31.1113C21.4368 30.5319 22.2279 29.6139 23.0156 28.3574L23.3477 28.6504C22.918 29.3665 22.4818 29.972 22.0391 30.4668C21.5964 30.9551 21.1536 31.3522 20.7109 31.6582C20.2747 31.9642 19.8451 32.1855 19.4219 32.3223C18.9987 32.459 18.5951 32.5273 18.2109 32.5273C17.931 32.5273 17.6348 32.4883 17.3223 32.4102C17.0098 32.332 16.7201 32.2018 16.4531 32.0195C16.1927 31.8372 15.9779 31.5931 15.8086 31.2871C15.6328 30.9811 15.5449 30.6003 15.5449 30.1445C15.5449 29.6562 15.6296 29.1875 15.7988 28.7383C15.9616 28.2826 16.1764 27.8594 16.4434 27.4688C16.7103 27.0781 17.0163 26.7233 17.3613 26.4043C17.7064 26.0788 18.0547 25.8021 18.4062 25.5742C18.7643 25.3464 19.1126 25.1706 19.4512 25.0469C19.7897 24.9167 20.0892 24.8516 20.3496 24.8516C20.5189 24.8516 20.6914 24.8776 20.8672 24.9297C21.043 24.9818 21.1992 25.0632 21.3359 25.1738C21.4792 25.2845 21.5931 25.431 21.6777 25.6133C21.7689 25.7956 21.8145 26.0137 21.8145 26.2676C21.8145 26.6126 21.7331 26.9382 21.5703 27.2441C21.4141 27.5436 21.2025 27.8236 20.9355 28.084C20.6686 28.3379 20.3594 28.569 20.0078 28.7773C19.6562 28.9792 19.2884 29.1517 18.9043 29.2949C18.5202 29.4382 18.1328 29.5521 17.7422 29.6367C17.3516 29.7214 16.9805 29.7669 16.6289 29.7734ZM16.707 29.3535C17.1432 29.3079 17.5534 29.2168 17.9375 29.0801C18.3216 28.9434 18.6732 28.7773 18.9922 28.582C19.3112 28.3802 19.5944 28.1621 19.8418 27.9277C20.0957 27.6934 20.3073 27.4557 20.4766 27.2148C20.6458 26.974 20.776 26.7428 20.8672 26.5215C20.9583 26.3001 21.0039 26.1016 21.0039 25.9258C21.0039 25.75 20.9551 25.61 20.8574 25.5059C20.7663 25.4017 20.6556 25.3496 20.5254 25.3496C20.2389 25.3496 19.9167 25.4538 19.5586 25.6621C19.2005 25.8639 18.8424 26.1471 18.4844 26.5117C18.1263 26.8698 17.7878 27.293 17.4688 27.7812C17.1562 28.2695 16.9023 28.7936 16.707 29.3535ZM31.1699 26.9316C31.1699 27.2116 31.1211 27.498 31.0234 27.791C30.9258 28.0775 30.8021 28.3672 30.6523 28.6602C30.5026 28.9466 30.3431 29.2298 30.1738 29.5098C30.0046 29.7897 29.8451 30.0599 29.6953 30.3203C29.5456 30.5807 29.4219 30.8314 29.3242 31.0723C29.2266 31.3066 29.1777 31.5215 29.1777 31.7168C29.1777 31.8665 29.2103 31.9674 29.2754 32.0195C29.3405 32.0716 29.4121 32.0977 29.4902 32.0977C29.7376 32.0977 30.0143 31.9772 30.3203 31.7363C30.6263 31.4889 30.9355 31.1797 31.248 30.8086C31.5671 30.4375 31.8828 30.0339 32.1953 29.5977C32.5078 29.1615 32.791 28.748 33.0449 28.3574L33.3965 28.6309C33.3444 28.709 33.25 28.8652 33.1133 29.0996C32.9766 29.3275 32.8073 29.5911 32.6055 29.8906C32.4036 30.1836 32.1758 30.4928 31.9219 30.8184C31.6745 31.1374 31.4076 31.4336 31.1211 31.707C30.8346 31.974 30.5384 32.1953 30.2324 32.3711C29.9329 32.5469 29.6302 32.6348 29.3242 32.6348C29.1484 32.6348 28.9889 32.6055 28.8457 32.5469C28.7025 32.4883 28.5788 32.4069 28.4746 32.3027C28.377 32.1986 28.2988 32.0781 28.2402 31.9414C28.1816 31.7982 28.1523 31.6484 28.1523 31.4922C28.1523 31.2383 28.2077 30.9648 28.3184 30.6719C28.4355 30.3724 28.5788 30.0664 28.748 29.7539C28.9173 29.4414 29.1029 29.1289 29.3047 28.8164C29.5065 28.4974 29.6921 28.1947 29.8613 27.9082C30.0306 27.6217 30.1706 27.3581 30.2812 27.1172C30.3984 26.8698 30.457 26.6582 30.457 26.4824C30.457 26.2806 30.4017 26.1113 30.291 25.9746C30.1868 25.8379 30.0371 25.7695 29.8418 25.7695C29.6335 25.7695 29.3926 25.8574 29.1191 26.0332C28.8457 26.2025 28.5397 26.4531 28.2012 26.7852C27.8626 27.1172 27.4915 27.5273 27.0879 28.0156C26.6908 28.4974 26.2578 29.0475 25.7891 29.666C25.5221 30.0241 25.2617 30.3691 25.0078 30.7012C24.8971 30.8444 24.7865 30.9909 24.6758 31.1406C24.5651 31.2904 24.4544 31.4401 24.3438 31.5898C24.2331 31.7331 24.1289 31.8698 24.0312 32C23.9336 32.1367 23.8457 32.2539 23.7676 32.3516L22.9082 32L24.0508 30.4277C24.2135 30.2064 24.3796 29.9688 24.5488 29.7148C24.7181 29.4609 24.8841 29.2005 25.0469 28.9336C25.2161 28.6602 25.3757 28.3867 25.5254 28.1133C25.6751 27.8398 25.8151 27.5729 25.9453 27.3125C26.1341 26.9219 26.2643 26.5996 26.3359 26.3457C26.4076 26.0853 26.4434 25.877 26.4434 25.7207C26.4434 25.5449 26.4108 25.431 26.3457 25.3789C26.2806 25.3203 26.1895 25.291 26.0723 25.291C25.9486 25.291 25.8053 25.3561 25.6426 25.4863C25.4863 25.61 25.3236 25.7728 25.1543 25.9746C24.985 26.1699 24.8125 26.3945 24.6367 26.6484C24.4674 26.8958 24.3047 27.1432 24.1484 27.3906C23.9922 27.638 23.8457 27.8724 23.709 28.0938C23.5723 28.3151 23.4583 28.4941 23.3672 28.6309L23.0156 28.3574C23.3477 27.8366 23.6471 27.3613 23.9141 26.9316C24.1875 26.4954 24.4479 26.1211 24.6953 25.8086C24.9492 25.4961 25.1934 25.2552 25.4277 25.0859C25.6686 24.9102 25.9225 24.8223 26.1895 24.8223C26.3327 24.8223 26.4694 24.8516 26.5996 24.9102C26.7363 24.9688 26.8535 25.0566 26.9512 25.1738C27.0553 25.2845 27.1367 25.4212 27.1953 25.584C27.2539 25.7467 27.2832 25.9355 27.2832 26.1504C27.2832 26.3197 27.2637 26.4954 27.2246 26.6777C27.5111 26.3978 27.778 26.1667 28.0254 25.9844C28.2728 25.8021 28.5007 25.6589 28.709 25.5547C28.9173 25.444 29.1094 25.3659 29.2852 25.3203C29.4609 25.2747 29.6204 25.252 29.7637 25.252C29.8874 25.252 30.0306 25.2747 30.1934 25.3203C30.3561 25.3659 30.5091 25.4505 30.6523 25.5742C30.7956 25.6979 30.916 25.8704 31.0137 26.0918C31.1178 26.3066 31.1699 26.5866 31.1699 26.9316ZM35.0371 23.9434C35.1022 23.8327 35.2161 23.6406 35.3789 23.3672C35.5482 23.0938 35.7435 22.791 35.9648 22.459C36.1927 22.127 36.4368 21.7949 36.6973 21.4629C36.9642 21.1243 37.2246 20.8379 37.4785 20.6035L37.918 20.8672C37.638 21.3294 37.3516 21.821 37.0586 22.3418C36.7656 22.8561 36.4759 23.39 36.1895 23.9434H39.373L39.1777 24.4512H35.9258C35.6328 25.0371 35.3561 25.6198 35.0957 26.1992C34.8418 26.7786 34.6172 27.332 34.4219 27.8594C34.2266 28.3867 34.0736 28.8815 33.9629 29.3438C33.8522 29.7995 33.7969 30.1966 33.7969 30.5352C33.7969 30.9583 33.8945 31.2643 34.0898 31.4531C34.2852 31.6354 34.526 31.7266 34.8125 31.7266C35.0664 31.7266 35.3268 31.6517 35.5938 31.502C35.8607 31.3457 36.1211 31.1504 36.375 30.916C36.6354 30.6816 36.8796 30.4245 37.1074 30.1445C37.3418 29.8646 37.5469 29.6009 37.7227 29.3535C37.9049 29.1061 38.0547 28.8913 38.1719 28.709C38.2891 28.5202 38.3607 28.403 38.3867 28.3574L38.748 28.6309C38.5202 29.0085 38.263 29.4089 37.9766 29.832C37.6901 30.2552 37.3711 30.6491 37.0195 31.0137C36.6745 31.3717 36.2969 31.6712 35.8867 31.9121C35.4766 32.1465 35.0339 32.2637 34.5586 32.2637C34.2656 32.2637 34.0085 32.2116 33.7871 32.1074C33.5723 32.0033 33.39 31.86 33.2402 31.6777C33.0905 31.4889 32.9798 31.2676 32.9082 31.0137C32.8301 30.7598 32.791 30.4831 32.791 30.1836C32.791 29.9883 32.8236 29.7116 32.8887 29.3535C32.9473 28.9954 33.0514 28.5723 33.2012 28.084C33.3509 27.5892 33.5495 27.0358 33.7969 26.4238C34.0508 25.8118 34.3698 25.1543 34.7539 24.4512H33.1328L33.3281 23.9434H35.0371ZM46.1504 25.5059C46.0658 25.6751 45.9453 25.8965 45.7891 26.1699C45.6393 26.4434 45.4766 26.7461 45.3008 27.0781C45.125 27.4036 44.946 27.7454 44.7637 28.1035C44.5879 28.4616 44.4251 28.8132 44.2754 29.1582C44.1322 29.4967 44.0117 29.819 43.9141 30.125C43.8229 30.4245 43.7773 30.6784 43.7773 30.8867C43.7773 31.0951 43.8164 31.2318 43.8945 31.2969C43.9792 31.3555 44.0866 31.3848 44.2168 31.3848C44.4056 31.3848 44.5977 31.3294 44.793 31.2188C44.9948 31.1081 45.1901 30.9648 45.3789 30.7891C45.5742 30.6133 45.763 30.4147 45.9453 30.1934C46.1276 29.972 46.2969 29.7507 46.4531 29.5293C46.6159 29.3014 46.7624 29.0866 46.8926 28.8848C47.0228 28.6764 47.1335 28.5007 47.2246 28.3574L47.5762 28.6309C47.4655 28.8392 47.3353 29.0638 47.1855 29.3047C47.0358 29.5456 46.8698 29.7897 46.6875 30.0371C46.5117 30.278 46.3197 30.5124 46.1113 30.7402C45.903 30.9681 45.6816 31.1699 45.4473 31.3457C45.2194 31.5215 44.9785 31.6615 44.7246 31.7656C44.4707 31.8698 44.2103 31.9219 43.9434 31.9219C43.5527 31.9219 43.2663 31.8047 43.084 31.5703C42.9017 31.3359 42.8105 31.0332 42.8105 30.6621C42.8105 30.6361 42.8105 30.5807 42.8105 30.4961C42.8171 30.4049 42.8268 30.3333 42.8398 30.2812C42.5143 30.6914 42.2018 31.0299 41.9023 31.2969C41.6094 31.5638 41.3229 31.7754 41.043 31.9316C40.7695 32.0879 40.5026 32.1953 40.2422 32.2539C39.9883 32.319 39.7441 32.3516 39.5098 32.3516C39.2624 32.3516 39.028 32.3092 38.8066 32.2246C38.5918 32.1465 38.403 32.0293 38.2402 31.873C38.071 31.7168 37.9408 31.5247 37.8496 31.2969C37.752 31.069 37.7031 30.8053 37.7031 30.5059C37.7031 30.1348 37.7878 29.7116 37.957 29.2363C38.1198 28.7546 38.4128 28.237 38.8359 27.6836C39.194 27.2083 39.5651 26.8079 39.9492 26.4824C40.3398 26.1569 40.7207 25.8965 41.0918 25.7012C41.4694 25.4993 41.8275 25.3561 42.166 25.2715C42.5046 25.1868 42.8073 25.1445 43.0742 25.1445C43.6732 25.1445 44.1257 25.2454 44.4316 25.4473C44.7376 25.6426 44.9232 25.9453 44.9883 26.3555C45.1185 26.1927 45.2552 26.0299 45.3984 25.8672C45.5417 25.7044 45.6882 25.5384 45.8379 25.3691L46.1504 25.5059ZM43.1523 29.2168C43.237 29.0801 43.3411 28.9076 43.4648 28.6992C43.5885 28.4844 43.7188 28.2663 43.8555 28.0449C43.9922 27.8171 44.1257 27.599 44.2559 27.3906C44.3861 27.1823 44.5 27.0065 44.5977 26.8633C44.5977 26.8047 44.5879 26.7103 44.5684 26.5801C44.5553 26.4499 44.513 26.3197 44.4414 26.1895C44.3698 26.0527 44.2559 25.9355 44.0996 25.8379C43.9434 25.7402 43.7253 25.6914 43.4453 25.6914C43.2435 25.6914 43.0156 25.724 42.7617 25.7891C42.5143 25.8477 42.2474 25.9518 41.9609 26.1016C41.681 26.2448 41.3913 26.4368 41.0918 26.6777C40.7923 26.9186 40.4928 27.2181 40.1934 27.5762C39.7441 28.1165 39.3958 28.6602 39.1484 29.207C38.9076 29.7474 38.7871 30.2357 38.7871 30.6719C38.7871 31.043 38.8717 31.3294 39.041 31.5312C39.2103 31.7331 39.4512 31.834 39.7637 31.834C40.1217 31.834 40.457 31.7559 40.7695 31.5996C41.082 31.4368 41.375 31.2285 41.6484 30.9746C41.9219 30.7207 42.1823 30.4408 42.4297 30.1348C42.6771 29.8223 42.918 29.5163 43.1523 29.2168ZM52.7422 26.0723C52.7812 25.9681 52.8008 25.8574 52.8008 25.7402C52.8008 25.5319 52.7161 25.3691 52.5469 25.252C52.3841 25.1283 52.1237 25.0664 51.7656 25.0664C51.4727 25.0664 51.1764 25.1315 50.877 25.2617C50.584 25.3854 50.3008 25.5579 50.0273 25.7793C49.7539 26.0007 49.4967 26.2643 49.2559 26.5703C49.0215 26.8763 48.8164 27.2083 48.6406 27.5664C48.4714 27.9245 48.3346 28.3053 48.2305 28.709C48.1328 29.1061 48.084 29.5065 48.084 29.9102C48.084 30.2357 48.1198 30.5124 48.1914 30.7402C48.263 30.9681 48.3639 31.1536 48.4941 31.2969C48.6243 31.4401 48.7806 31.5443 48.9629 31.6094C49.1452 31.668 49.3503 31.6973 49.5781 31.6973C50.0273 31.6973 50.4635 31.5964 50.8867 31.3945C51.3099 31.1927 51.7103 30.9323 52.0879 30.6133C52.472 30.2878 52.8236 29.9264 53.1426 29.5293C53.4681 29.1322 53.7546 28.7415 54.002 28.3574L54.3633 28.6309C54.0117 29.2233 53.6374 29.7441 53.2402 30.1934C52.8431 30.6361 52.4362 31.0072 52.0195 31.3066C51.6029 31.6061 51.1797 31.8307 50.75 31.9805C50.3203 32.1302 49.9004 32.2051 49.4902 32.2051C49.1647 32.2051 48.8522 32.1562 48.5527 32.0586C48.2598 31.9609 47.9993 31.8145 47.7715 31.6191C47.5501 31.4173 47.3711 31.1602 47.2344 30.8477C47.1042 30.5352 47.0391 30.1641 47.0391 29.7344C47.0391 29.2266 47.1107 28.748 47.2539 28.2988C47.4036 27.8431 47.599 27.4232 47.8398 27.0391C48.0872 26.6549 48.3704 26.3099 48.6895 26.0039C49.0085 25.6914 49.3405 25.4277 49.6855 25.2129C50.0371 24.998 50.3887 24.8353 50.7402 24.7246C51.0983 24.6074 51.4336 24.5488 51.7461 24.5488C52.0651 24.5488 52.3255 24.5944 52.5273 24.6855C52.7292 24.7702 52.8887 24.8743 53.0059 24.998C53.123 25.1217 53.2012 25.252 53.2402 25.3887C53.2858 25.5254 53.3086 25.6426 53.3086 25.7402C53.3086 25.8965 53.2858 26.0625 53.2402 26.2383C53.1947 26.4141 53.1296 26.5768 53.0449 26.7266C52.9668 26.8698 52.8659 26.9902 52.7422 27.0879C52.625 27.1855 52.4948 27.2344 52.3516 27.2344C52.2083 27.2344 52.0846 27.1888 51.9805 27.0977C51.8763 27 51.8242 26.8796 51.8242 26.7363C51.8242 26.7298 51.8275 26.6908 51.834 26.6191C51.847 26.5475 51.8796 26.4727 51.9316 26.3945C51.9837 26.3099 52.0618 26.235 52.166 26.1699C52.2767 26.1048 52.4297 26.0723 52.625 26.0723H52.7422ZM58.3965 23.3379C58.3965 23.4681 58.3639 23.6048 58.2988 23.748C58.2337 23.8848 58.1491 24.0085 58.0449 24.1191C57.9473 24.2298 57.8366 24.321 57.7129 24.3926C57.5892 24.4642 57.4655 24.5 57.3418 24.5C57.2311 24.5 57.1465 24.4609 57.0879 24.3828C57.0293 24.2982 57 24.1973 57 24.0801C57 23.9759 57.0195 23.8522 57.0586 23.709C57.0977 23.5658 57.1562 23.4323 57.2344 23.3086C57.3125 23.1784 57.4069 23.0677 57.5176 22.9766C57.6283 22.8854 57.7552 22.8398 57.8984 22.8398C58.0352 22.8398 58.1523 22.8919 58.25 22.9961C58.3477 23.1003 58.3965 23.2142 58.3965 23.3379ZM56.5703 25.5059C56.4857 25.6751 56.3652 25.8997 56.209 26.1797C56.0592 26.4531 55.8965 26.7559 55.7207 27.0879C55.5449 27.4134 55.3659 27.7585 55.1836 28.123C55.0013 28.4811 54.8353 28.8327 54.6855 29.1777C54.5423 29.5163 54.4251 29.8353 54.334 30.1348C54.2428 30.4342 54.1973 30.6882 54.1973 30.8965C54.1973 31.0853 54.2363 31.2155 54.3145 31.2871C54.3926 31.3522 54.5033 31.3848 54.6465 31.3848C54.9134 31.3848 55.1738 31.2969 55.4277 31.1211C55.6816 30.9453 55.9323 30.7174 56.1797 30.4375C56.4336 30.151 56.681 29.8255 56.9219 29.4609C57.1628 29.0964 57.4036 28.7285 57.6445 28.3574L57.9961 28.6309C57.8073 28.9694 57.5924 29.3307 57.3516 29.7148C57.1172 30.099 56.8535 30.457 56.5605 30.7891C56.2676 31.1146 55.9453 31.3848 55.5938 31.5996C55.2422 31.8145 54.8581 31.9219 54.4414 31.9219C54.0508 31.9219 53.7513 31.8047 53.543 31.5703C53.3346 31.3359 53.2305 31.0332 53.2305 30.6621C53.2305 30.2259 53.3314 29.7702 53.5332 29.2949C53.735 28.8197 53.9857 28.3509 54.2852 27.8887C54.5911 27.4199 54.9199 26.9707 55.2715 26.541C55.6296 26.1113 55.9583 25.7207 56.2578 25.3691L56.5703 25.5059ZM63.1523 29.3438C63.1784 29.3503 63.2044 29.3535 63.2305 29.3535C63.2565 29.3535 63.2858 29.3535 63.3184 29.3535C63.5007 29.3535 63.6667 29.3372 63.8164 29.3047C63.9661 29.2656 64.1029 29.207 64.2266 29.1289C64.3568 29.0508 64.4805 28.9499 64.5977 28.8262C64.7148 28.696 64.8288 28.5397 64.9395 28.3574L65.291 28.6309C64.9785 29.0736 64.6562 29.3828 64.3242 29.5586C63.9922 29.7344 63.6406 29.8223 63.2695 29.8223C63.1328 29.8223 63.0124 29.8092 62.9082 29.7832C62.6283 30.252 62.3288 30.6523 62.0098 30.9844C61.6908 31.3099 61.3652 31.5768 61.0332 31.7852C60.7012 31.9935 60.3724 32.1432 60.0469 32.2344C59.7214 32.332 59.4186 32.3809 59.1387 32.3809C58.8522 32.3809 58.5853 32.3288 58.3379 32.2246C58.097 32.127 57.8887 31.9837 57.7129 31.7949C57.5371 31.6061 57.4004 31.3815 57.3027 31.1211C57.2051 30.8607 57.1562 30.5677 57.1562 30.2422C57.1562 29.9167 57.2083 29.5846 57.3125 29.2461C57.4167 28.9076 57.5566 28.5723 57.7324 28.2402C57.9147 27.9082 58.1263 27.5892 58.3672 27.2832C58.6081 26.9707 58.8685 26.681 59.1484 26.4141C59.4284 26.1471 59.7181 25.9062 60.0176 25.6914C60.3171 25.4766 60.6165 25.3008 60.916 25.1641L61.2285 25.5742C60.8835 25.8216 60.5319 26.1341 60.1738 26.5117C59.8223 26.8893 59.5 27.3027 59.207 27.752C58.9206 28.2012 58.6829 28.6699 58.4941 29.1582C58.3118 29.64 58.2207 30.1087 58.2207 30.5645C58.2207 30.9746 58.3118 31.2936 58.4941 31.5215C58.6764 31.7428 58.9531 31.8535 59.3242 31.8535C59.6107 31.8535 59.8939 31.7949 60.1738 31.6777C60.4538 31.5605 60.7272 31.401 60.9941 31.1992C61.2611 30.9974 61.5182 30.7598 61.7656 30.4863C62.013 30.2064 62.2474 29.9102 62.4688 29.5977C62.2799 29.487 62.1139 29.3405 61.9707 29.1582C61.8275 28.9694 61.707 28.7578 61.6094 28.5234C61.5117 28.2826 61.4368 28.0254 61.3848 27.752C61.3392 27.4785 61.3164 27.1986 61.3164 26.9121C61.3164 26.6257 61.3522 26.3555 61.4238 26.1016C61.4954 25.8477 61.5931 25.6263 61.7168 25.4375C61.847 25.2422 61.9967 25.0892 62.166 24.9785C62.3353 24.8678 62.5208 24.8125 62.7227 24.8125C62.9049 24.8125 63.0677 24.8613 63.2109 24.959C63.3542 25.0501 63.4746 25.1803 63.5723 25.3496C63.6699 25.5124 63.7448 25.7077 63.7969 25.9355C63.849 26.1634 63.875 26.4076 63.875 26.668C63.875 26.8633 63.8587 27.0781 63.8262 27.3125C63.7936 27.5469 63.7448 27.7845 63.6797 28.0254C63.6211 28.2598 63.5462 28.4941 63.4551 28.7285C63.3704 28.9564 63.2695 29.1615 63.1523 29.3438ZM61.8242 26.9121C61.8242 27.1009 61.8405 27.306 61.873 27.5273C61.9056 27.7487 61.9577 27.9635 62.0293 28.1719C62.1009 28.3802 62.1921 28.5755 62.3027 28.7578C62.4134 28.9336 62.5501 29.0736 62.7129 29.1777C62.8301 28.9499 62.9277 28.7188 63.0059 28.4844C63.0905 28.2435 63.1589 28.0124 63.2109 27.791C63.2695 27.5697 63.3086 27.3646 63.3281 27.1758C63.3542 26.9805 63.3672 26.8112 63.3672 26.668C63.3672 26.4727 63.3509 26.2936 63.3184 26.1309C63.2858 25.9681 63.2402 25.8281 63.1816 25.7109C63.1296 25.5872 63.0612 25.4928 62.9766 25.4277C62.8984 25.3561 62.8105 25.3203 62.7129 25.3203C62.5827 25.3203 62.4622 25.3659 62.3516 25.457C62.2409 25.5417 62.1465 25.6589 62.0684 25.8086C61.9902 25.9518 61.9284 26.1211 61.8828 26.3164C61.8438 26.5052 61.8242 26.7038 61.8242 26.9121ZM62.5078 23.6406H61.834L63.5723 21.7461H64.793L62.5078 23.6406ZM73.1035 26.9316C73.1035 27.2116 73.0547 27.498 72.957 27.791C72.8594 28.0775 72.7357 28.3672 72.5859 28.6602C72.4362 28.9466 72.2767 29.2298 72.1074 29.5098C71.9382 29.7897 71.7786 30.0599 71.6289 30.3203C71.4792 30.5807 71.3555 30.8314 71.2578 31.0723C71.1602 31.3066 71.1113 31.5215 71.1113 31.7168C71.1113 31.8665 71.1439 31.9674 71.209 32.0195C71.2741 32.0716 71.3457 32.0977 71.4238 32.0977C71.6712 32.0977 71.9479 31.9772 72.2539 31.7363C72.5599 31.4889 72.8691 31.1797 73.1816 30.8086C73.5007 30.4375 73.8164 30.0339 74.1289 29.5977C74.4414 29.1615 74.7246 28.748 74.9785 28.3574L75.3301 28.6309C75.278 28.709 75.1836 28.8652 75.0469 29.0996C74.9102 29.3275 74.7409 29.5911 74.5391 29.8906C74.3372 30.1836 74.1094 30.4928 73.8555 30.8184C73.6081 31.1374 73.3411 31.4336 73.0547 31.707C72.7682 31.974 72.472 32.1953 72.166 32.3711C71.8665 32.5469 71.5638 32.6348 71.2578 32.6348C71.082 32.6348 70.9225 32.6055 70.7793 32.5469C70.6361 32.4883 70.5124 32.4069 70.4082 32.3027C70.3105 32.1986 70.2324 32.0781 70.1738 31.9414C70.1152 31.7982 70.0859 31.6484 70.0859 31.4922C70.0859 31.2383 70.1413 30.9648 70.252 30.6719C70.3691 30.3724 70.5124 30.0664 70.6816 29.7539C70.8509 29.4414 71.0365 29.1289 71.2383 28.8164C71.4401 28.4974 71.6257 28.1947 71.7949 27.9082C71.9642 27.6217 72.1042 27.3581 72.2148 27.1172C72.332 26.8698 72.3906 26.6582 72.3906 26.4824C72.3906 26.2806 72.3353 26.1113 72.2246 25.9746C72.1204 25.8379 71.9707 25.7695 71.7754 25.7695C71.5671 25.7695 71.3262 25.8574 71.0527 26.0332C70.7793 26.2025 70.4733 26.4531 70.1348 26.7852C69.7962 27.1172 69.4251 27.5273 69.0215 28.0156C68.6243 28.4974 68.1914 29.0475 67.7227 29.666C67.4557 30.0241 67.1953 30.3691 66.9414 30.7012C66.8307 30.8444 66.7201 30.9909 66.6094 31.1406C66.4987 31.2904 66.388 31.4401 66.2773 31.5898C66.1667 31.7331 66.0625 31.8698 65.9648 32C65.8672 32.1367 65.7793 32.2539 65.7012 32.3516L64.8418 32L65.9844 30.4277C66.1471 30.2064 66.3132 29.9688 66.4824 29.7148C66.6517 29.4609 66.8177 29.2005 66.9805 28.9336C67.1497 28.6602 67.3092 28.3867 67.459 28.1133C67.6087 27.8398 67.7487 27.5729 67.8789 27.3125C68.0677 26.9219 68.1979 26.5996 68.2695 26.3457C68.3411 26.0853 68.377 25.877 68.377 25.7207C68.377 25.5449 68.3444 25.431 68.2793 25.3789C68.2142 25.3203 68.123 25.291 68.0059 25.291C67.8822 25.291 67.7389 25.3561 67.5762 25.4863C67.4199 25.61 67.2572 25.7728 67.0879 25.9746C66.9186 26.1699 66.7461 26.3945 66.5703 26.6484C66.401 26.8958 66.2383 27.1432 66.082 27.3906C65.9258 27.638 65.7793 27.8724 65.6426 28.0938C65.5059 28.3151 65.3919 28.4941 65.3008 28.6309L64.9492 28.3574C65.2812 27.8366 65.5807 27.3613 65.8477 26.9316C66.1211 26.4954 66.3815 26.1211 66.6289 25.8086C66.8828 25.4961 67.127 25.2552 67.3613 25.0859C67.6022 24.9102 67.8561 24.8223 68.123 24.8223C68.2663 24.8223 68.403 24.8516 68.5332 24.9102C68.6699 24.9688 68.7871 25.0566 68.8848 25.1738C68.9889 25.2845 69.0703 25.4212 69.1289 25.584C69.1875 25.7467 69.2168 25.9355 69.2168 26.1504C69.2168 26.3197 69.1973 26.4954 69.1582 26.6777C69.4447 26.3978 69.7116 26.1667 69.959 25.9844C70.2064 25.8021 70.4342 25.6589 70.6426 25.5547C70.8509 25.444 71.043 25.3659 71.2188 25.3203C71.3945 25.2747 71.554 25.252 71.6973 25.252C71.821 25.252 71.9642 25.2747 72.127 25.3203C72.2897 25.3659 72.4427 25.4505 72.5859 25.5742C72.7292 25.6979 72.8496 25.8704 72.9473 26.0918C73.0514 26.3066 73.1035 26.5866 73.1035 26.9316ZM5.13477 51.334C5.10221 51.3926 5.0599 51.4577 5.00781 51.5293C4.95573 51.5944 4.90365 51.6725 4.85156 51.7637C4.80599 51.8483 4.76367 51.9492 4.72461 52.0664C4.69206 52.1836 4.67578 52.3236 4.67578 52.4863C4.67578 52.623 4.70833 52.8086 4.77344 53.043C4.84505 53.2773 4.91992 53.5475 4.99805 53.8535C5.07617 54.153 5.14779 54.4818 5.21289 54.8398C5.28451 55.1914 5.32031 55.556 5.32031 55.9336C5.32031 56.487 5.24544 56.9753 5.0957 57.3984C4.94596 57.8216 4.7474 58.1829 4.5 58.4824C5.00781 58.209 5.50586 57.8184 5.99414 57.3105C6.48242 56.7962 6.97396 56.1452 7.46875 55.3574L7.80078 55.6504C7.52083 56.1126 7.20182 56.5716 6.84375 57.0273C6.49219 57.4766 6.10482 57.8835 5.68164 58.248C5.25846 58.6061 4.80273 58.8958 4.31445 59.1172C3.82617 59.3451 3.30859 59.459 2.76172 59.459C2.27344 59.459 1.86328 59.3418 1.53125 59.1074C1.19271 58.8796 0.984375 58.5345 0.90625 58.0723L1.25781 58.0039C1.25781 58.043 1.27734 58.1081 1.31641 58.1992C1.34896 58.2839 1.4043 58.3685 1.48242 58.4531C1.56055 58.5378 1.66797 58.6126 1.80469 58.6777C1.9349 58.7428 2.09766 58.7754 2.29297 58.7754C2.55339 58.7754 2.78451 58.7168 2.98633 58.5996C3.18815 58.4759 3.36393 58.3164 3.51367 58.1211C3.66341 57.9258 3.79036 57.7044 3.89453 57.457C3.9987 57.2031 4.08008 56.9427 4.13867 56.6758C4.20378 56.4089 4.24935 56.1484 4.27539 55.8945C4.30143 55.6406 4.31445 55.4095 4.31445 55.2012C4.31445 54.9928 4.30469 54.7617 4.28516 54.5078C4.27214 54.2539 4.25586 54.013 4.23633 53.7852C4.2168 53.5508 4.19727 53.349 4.17773 53.1797C4.16471 53.0039 4.1582 52.89 4.1582 52.8379V52.8184C4.07357 52.9095 3.97266 53.043 3.85547 53.2188C3.73828 53.3945 3.61133 53.5866 3.47461 53.7949C3.3444 54.0033 3.21094 54.2148 3.07422 54.4297C2.94401 54.6445 2.82357 54.8398 2.71289 55.0156C2.60872 55.1914 2.52083 55.3379 2.44922 55.4551C2.38411 55.5658 2.35156 55.6243 2.35156 55.6309L2 55.3574C2.00651 55.3509 2.08789 55.2109 2.24414 54.9375C2.40039 54.6641 2.60547 54.319 2.85938 53.9023C3.11979 53.4792 3.41276 53.0137 3.73828 52.5059C4.0638 51.9915 4.39909 51.4935 4.74414 51.0117L5.13477 51.334ZM15.2324 52.5059C15.1478 52.6751 15.0273 52.8965 14.8711 53.1699C14.7214 53.4434 14.5586 53.7461 14.3828 54.0781C14.207 54.4036 14.028 54.7454 13.8457 55.1035C13.6699 55.4616 13.5072 55.8132 13.3574 56.1582C13.2142 56.4967 13.0938 56.819 12.9961 57.125C12.9049 57.4245 12.8594 57.6784 12.8594 57.8867C12.8594 58.0951 12.8984 58.2318 12.9766 58.2969C13.0612 58.3555 13.1686 58.3848 13.2988 58.3848C13.4876 58.3848 13.6797 58.3294 13.875 58.2188C14.0768 58.1081 14.2721 57.9648 14.4609 57.7891C14.6562 57.6133 14.8451 57.4147 15.0273 57.1934C15.2096 56.972 15.3789 56.7507 15.5352 56.5293C15.6979 56.3014 15.8444 56.0866 15.9746 55.8848C16.1048 55.6764 16.2155 55.5007 16.3066 55.3574L16.6582 55.6309C16.5475 55.8392 16.4173 56.0638 16.2676 56.3047C16.1178 56.5456 15.9518 56.7897 15.7695 57.0371C15.5938 57.278 15.4017 57.5124 15.1934 57.7402C14.985 57.9681 14.7637 58.1699 14.5293 58.3457C14.3014 58.5215 14.0605 58.6615 13.8066 58.7656C13.5527 58.8698 13.2923 58.9219 13.0254 58.9219C12.6348 58.9219 12.3483 58.8047 12.166 58.5703C11.9837 58.3359 11.8926 58.0332 11.8926 57.6621C11.8926 57.6361 11.8926 57.5807 11.8926 57.4961C11.8991 57.4049 11.9089 57.3333 11.9219 57.2812C11.5964 57.6914 11.2839 58.0299 10.9844 58.2969C10.6914 58.5638 10.4049 58.7754 10.125 58.9316C9.85156 59.0879 9.58464 59.1953 9.32422 59.2539C9.07031 59.319 8.82617 59.3516 8.5918 59.3516C8.3444 59.3516 8.11003 59.3092 7.88867 59.2246C7.67383 59.1465 7.48503 59.0293 7.32227 58.873C7.15299 58.7168 7.02279 58.5247 6.93164 58.2969C6.83398 58.069 6.78516 57.8053 6.78516 57.5059C6.78516 57.1348 6.86979 56.7116 7.03906 56.2363C7.20182 55.7546 7.49479 55.237 7.91797 54.6836C8.27604 54.2083 8.64714 53.8079 9.03125 53.4824C9.42188 53.1569 9.80273 52.8965 10.1738 52.7012C10.5514 52.4993 10.9095 52.3561 11.248 52.2715C11.5866 52.1868 11.8893 52.1445 12.1562 52.1445C12.7552 52.1445 13.2077 52.2454 13.5137 52.4473C13.8197 52.6426 14.0052 52.9453 14.0703 53.3555C14.2005 53.1927 14.3372 53.0299 14.4805 52.8672C14.6237 52.7044 14.7702 52.5384 14.9199 52.3691L15.2324 52.5059ZM12.2344 56.2168C12.319 56.0801 12.4232 55.9076 12.5469 55.6992C12.6706 55.4844 12.8008 55.2663 12.9375 55.0449C13.0742 54.8171 13.2077 54.599 13.3379 54.3906C13.4681 54.1823 13.582 54.0065 13.6797 53.8633C13.6797 53.8047 13.6699 53.7103 13.6504 53.5801C13.6374 53.4499 13.5951 53.3197 13.5234 53.1895C13.4518 53.0527 13.3379 52.9355 13.1816 52.8379C13.0254 52.7402 12.8073 52.6914 12.5273 52.6914C12.3255 52.6914 12.0977 52.724 11.8438 52.7891C11.5964 52.8477 11.3294 52.9518 11.043 53.1016C10.763 53.2448 10.4733 53.4368 10.1738 53.6777C9.87435 53.9186 9.57487 54.2181 9.27539 54.5762C8.82617 55.1165 8.47786 55.6602 8.23047 56.207C7.98958 56.7474 7.86914 57.2357 7.86914 57.6719C7.86914 58.043 7.95378 58.3294 8.12305 58.5312C8.29232 58.7331 8.5332 58.834 8.8457 58.834C9.20378 58.834 9.53906 58.7559 9.85156 58.5996C10.1641 58.4368 10.457 58.2285 10.7305 57.9746C11.0039 57.7207 11.2643 57.4408 11.5117 57.1348C11.7591 56.8223 12 56.5163 12.2344 56.2168ZM23.3867 44.791C23.6146 44.791 23.8034 44.8464 23.9531 44.957C24.1094 45.0677 24.1875 45.2695 24.1875 45.5625C24.1875 45.7643 24.1452 46.0052 24.0605 46.2852C23.9824 46.5651 23.8717 46.8711 23.7285 47.2031C23.5918 47.5286 23.429 47.8737 23.2402 48.2383C23.0514 48.5964 22.8464 48.9544 22.625 49.3125C22.4102 49.6706 22.1823 50.0189 21.9414 50.3574C21.707 50.696 21.4727 51.0085 21.2383 51.2949C20.7695 51.8743 20.3626 52.3626 20.0176 52.7598C19.679 53.1569 19.3861 53.4954 19.1387 53.7754C18.8913 54.0488 18.6829 54.2734 18.5137 54.4492C18.3444 54.6185 18.1947 54.765 18.0645 54.8887C17.9342 55.0124 17.8138 55.1263 17.7031 55.2305C17.5924 55.3281 17.4785 55.4388 17.3613 55.5625C17.3092 55.8099 17.2832 56.0475 17.2832 56.2754C17.2897 56.4967 17.293 56.7018 17.293 56.8906C17.293 57.457 17.3841 57.877 17.5664 58.1504C17.7487 58.4238 18.0059 58.5605 18.3379 58.5605C18.5592 58.5605 18.7806 58.5052 19.002 58.3945C19.2298 58.2773 19.4544 58.1276 19.6758 57.9453C19.8971 57.763 20.112 57.5579 20.3203 57.3301C20.5286 57.0957 20.724 56.8613 20.9062 56.627C21.0951 56.3861 21.2643 56.1549 21.4141 55.9336C21.5638 55.7122 21.694 55.5202 21.8047 55.3574L22.166 55.6309C22.1465 55.6569 22.0814 55.7611 21.9707 55.9434C21.8665 56.1191 21.7266 56.334 21.5508 56.5879C21.375 56.8418 21.1667 57.1152 20.9258 57.4082C20.6849 57.6947 20.4245 57.9616 20.1445 58.209C19.8646 58.4564 19.5684 58.6615 19.2559 58.8242C18.9499 58.987 18.6374 59.0684 18.3184 59.0684C18.0514 59.0684 17.7943 59.0195 17.5469 58.9219C17.306 58.8177 17.0911 58.6582 16.9023 58.4434C16.7201 58.222 16.5703 57.9421 16.4531 57.6035C16.3424 57.265 16.2871 56.8581 16.2871 56.3828C16.2871 55.7904 16.3555 55.1719 16.4922 54.5273C16.6354 53.8763 16.8275 53.2253 17.0684 52.5742C17.3092 51.9167 17.5924 51.2689 17.918 50.6309C18.2435 49.9928 18.5885 49.3874 18.9531 48.8145C19.3242 48.235 19.7083 47.7012 20.1055 47.2129C20.5091 46.7181 20.903 46.2917 21.2871 45.9336C21.6777 45.5755 22.0521 45.2956 22.4102 45.0938C22.7682 44.8919 23.0938 44.791 23.3867 44.791ZM17.5371 54.6934C18.0905 54.1204 18.6243 53.541 19.1387 52.9551C19.6595 52.3626 20.1445 51.7799 20.5938 51.207C21.0495 50.6276 21.4661 50.0677 21.8438 49.5273C22.2214 48.9805 22.5436 48.4661 22.8105 47.9844C23.0775 47.5026 23.2858 47.0632 23.4355 46.666C23.5853 46.2689 23.6602 45.9271 23.6602 45.6406C23.6602 45.5885 23.6341 45.5202 23.582 45.4355C23.5299 45.3444 23.4681 45.2988 23.3965 45.2988C23.1947 45.2988 22.9277 45.4323 22.5957 45.6992C22.2637 45.9661 21.9023 46.3307 21.5117 46.793C21.1276 47.2487 20.7272 47.7826 20.3105 48.3945C19.9004 49.0065 19.513 49.6608 19.1484 50.3574C18.7839 51.054 18.4583 51.7734 18.1719 52.5156C17.8854 53.2578 17.6738 53.9837 17.5371 54.6934ZM26.3555 56.8711C26.056 57.2227 25.7598 57.5482 25.4668 57.8477C25.1738 58.1406 24.8809 58.3945 24.5879 58.6094C24.3014 58.8177 24.015 58.9805 23.7285 59.0977C23.4421 59.2214 23.1523 59.2832 22.8594 59.2832C22.612 59.2832 22.3874 59.2376 22.1855 59.1465C21.9902 59.0618 21.821 58.9414 21.6777 58.7852C21.528 58.6224 21.4141 58.4271 21.3359 58.1992C21.2578 57.9648 21.2188 57.7044 21.2188 57.418C21.2188 56.9688 21.3197 56.5065 21.5215 56.0312C21.7168 55.556 21.9642 55.0938 22.2637 54.6445C22.5697 54.1953 22.9049 53.7689 23.2695 53.3652C23.6406 52.9616 23.9922 52.6035 24.3242 52.291L24.7441 52.584C24.5098 52.929 24.2461 53.3197 23.9531 53.7559C23.6667 54.1921 23.3932 54.6445 23.1328 55.1133C22.8789 55.5755 22.6641 56.041 22.4883 56.5098C22.3125 56.972 22.2246 57.4017 22.2246 57.7988C22.2246 58.0658 22.2734 58.2936 22.3711 58.4824C22.4753 58.6712 22.6706 58.7656 22.957 58.7656C23.2695 58.7656 23.6113 58.6419 23.9824 58.3945C24.36 58.1471 24.7441 57.8249 25.1348 57.4277C25.5319 57.0306 25.9258 56.5846 26.3164 56.0898C26.7135 55.5885 27.0879 55.084 27.4395 54.5762C27.791 54.0684 28.11 53.5833 28.3965 53.1211C28.6895 52.6589 28.9271 52.265 29.1094 51.9395L29.8223 52.291C29.4447 53.0332 29.0801 53.7266 28.7285 54.3711C28.3835 55.0091 28.0742 55.5853 27.8008 56.0996C27.5339 56.6074 27.319 57.0501 27.1562 57.4277C27 57.8053 26.9219 58.1048 26.9219 58.3262C26.9219 58.4173 26.9414 58.4922 26.9805 58.5508C27.0195 58.6094 27.0814 58.6387 27.166 58.6387C27.4069 58.6452 27.6706 58.541 27.957 58.3262C28.25 58.1113 28.543 57.8411 28.8359 57.5156C29.1354 57.1901 29.4251 56.8353 29.7051 56.4512C29.9915 56.0605 30.2487 55.696 30.4766 55.3574L30.8281 55.6309C30.7891 55.696 30.7077 55.8294 30.584 56.0312C30.4603 56.2331 30.3073 56.4642 30.125 56.7246C29.9427 56.985 29.7344 57.2585 29.5 57.5449C29.2656 57.8314 29.0182 58.0951 28.7578 58.3359C28.4974 58.5703 28.2272 58.7656 27.9473 58.9219C27.6673 59.0716 27.3906 59.1465 27.1172 59.1465C26.9479 59.1465 26.7949 59.1172 26.6582 59.0586C26.528 59 26.4173 58.9219 26.3262 58.8242C26.235 58.7266 26.1634 58.6126 26.1113 58.4824C26.0592 58.3522 26.0332 58.2155 26.0332 58.0723C26.0332 57.903 26.0592 57.7174 26.1113 57.5156C26.1699 57.3138 26.2513 57.099 26.3555 56.8711ZM41.3652 46.168C41.2936 46.2721 41.1764 46.4447 41.0137 46.6855C40.8509 46.9264 40.6621 47.2129 40.4473 47.5449C40.2324 47.877 39.998 48.2448 39.7441 48.6484C39.4967 49.0521 39.2461 49.4688 38.9922 49.8984C38.7448 50.3281 38.5007 50.7643 38.2598 51.207C38.0254 51.6432 37.8171 52.0632 37.6348 52.4668C37.3483 53.0918 37.1107 53.6517 36.9219 54.1465C36.7396 54.6348 36.5931 55.071 36.4824 55.4551C36.3783 55.8392 36.3034 56.1745 36.2578 56.4609C36.2188 56.7409 36.1992 56.9818 36.1992 57.1836C36.1992 57.5547 36.2546 57.8118 36.3652 57.9551C36.4824 58.0983 36.6387 58.1699 36.834 58.1699C37.0358 58.1699 37.2279 58.1178 37.4102 58.0137C37.599 57.9095 37.778 57.776 37.9473 57.6133C38.123 57.4505 38.2858 57.265 38.4355 57.0566C38.5918 56.8483 38.735 56.64 38.8652 56.4316C39.002 56.2233 39.1257 56.0247 39.2363 55.8359C39.347 55.6471 39.4447 55.4876 39.5293 55.3574L39.8809 55.6309C39.8092 55.748 39.7181 55.9043 39.6074 56.0996C39.5033 56.2884 39.3828 56.4967 39.2461 56.7246C39.1094 56.9525 38.9531 57.1836 38.7773 57.418C38.6016 57.6458 38.4062 57.8542 38.1914 58.043C37.9831 58.2318 37.7487 58.388 37.4883 58.5117C37.2344 58.6289 36.9577 58.6875 36.6582 58.6875C36.515 58.6875 36.362 58.668 36.1992 58.6289C36.043 58.5898 35.8965 58.5215 35.7598 58.4238C35.623 58.3262 35.5026 58.1927 35.3984 58.0234C35.2943 57.8477 35.2259 57.6263 35.1934 57.3594C34.7051 57.8867 34.2298 58.2871 33.7676 58.5605C33.3053 58.8275 32.8691 58.9609 32.459 58.9609C32.2507 58.9609 32.0195 58.9251 31.7656 58.8535C31.5182 58.7819 31.2839 58.6582 31.0625 58.4824C30.8411 58.3066 30.6556 58.0755 30.5059 57.7891C30.3561 57.4961 30.2812 57.1348 30.2812 56.7051C30.2812 56.2233 30.3561 55.7643 30.5059 55.3281C30.6556 54.8919 30.8574 54.4883 31.1113 54.1172C31.3652 53.7396 31.6549 53.401 31.9805 53.1016C32.3125 52.7956 32.6576 52.5384 33.0156 52.3301C33.3737 52.1152 33.7318 51.9492 34.0898 51.832C34.4544 51.7148 34.7962 51.6562 35.1152 51.6562C35.5384 51.6562 35.8704 51.7083 36.1113 51.8125C36.3522 51.9167 36.5345 52.0208 36.6582 52.125C36.7493 51.9427 36.873 51.7116 37.0293 51.4316C37.1855 51.1452 37.3678 50.8294 37.5762 50.4844C37.7845 50.1328 38.0156 49.7617 38.2695 49.3711C38.5234 48.974 38.7936 48.5768 39.0801 48.1797C39.3665 47.776 39.666 47.3789 39.9785 46.9883C40.2975 46.5977 40.6198 46.2331 40.9453 45.8945L41.3652 46.168ZM35.1836 56.627C35.2161 56.1452 35.3268 55.5788 35.5156 54.9277C35.7109 54.2702 36.0072 53.515 36.4043 52.6621C36.3132 52.5254 36.1829 52.4212 36.0137 52.3496C35.8509 52.2715 35.6654 52.2324 35.457 52.2324C35.138 52.2324 34.8125 52.2975 34.4805 52.4277C34.1549 52.5579 33.8392 52.7337 33.5332 52.9551C33.2337 53.1764 32.9505 53.4401 32.6836 53.7461C32.4167 54.0456 32.1823 54.3678 31.9805 54.7129C31.7852 55.0579 31.6289 55.4193 31.5117 55.7969C31.401 56.168 31.3457 56.5358 31.3457 56.9004C31.3457 57.3887 31.4466 57.7695 31.6484 58.043C31.8568 58.3164 32.1335 58.4531 32.4785 58.4531C32.6413 58.4531 32.8203 58.4206 33.0156 58.3555C33.2109 58.2904 33.4225 58.1862 33.6504 58.043C33.8848 57.8932 34.1289 57.7044 34.3828 57.4766C34.6367 57.2422 34.9036 56.959 35.1836 56.627ZM47.3027 52.5059C47.2181 52.6751 47.0977 52.8965 46.9414 53.1699C46.7917 53.4434 46.6289 53.7461 46.4531 54.0781C46.2773 54.4036 46.0983 54.7454 45.916 55.1035C45.7402 55.4616 45.5775 55.8132 45.4277 56.1582C45.2845 56.4967 45.1641 56.819 45.0664 57.125C44.9753 57.4245 44.9297 57.6784 44.9297 57.8867C44.9297 58.0951 44.9688 58.2318 45.0469 58.2969C45.1315 58.3555 45.2389 58.3848 45.3691 58.3848C45.5579 58.3848 45.75 58.3294 45.9453 58.2188C46.1471 58.1081 46.3424 57.9648 46.5312 57.7891C46.7266 57.6133 46.9154 57.4147 47.0977 57.1934C47.2799 56.972 47.4492 56.7507 47.6055 56.5293C47.7682 56.3014 47.9147 56.0866 48.0449 55.8848C48.1751 55.6764 48.2858 55.5007 48.377 55.3574L48.7285 55.6309C48.6178 55.8392 48.4876 56.0638 48.3379 56.3047C48.1882 56.5456 48.0221 56.7897 47.8398 57.0371C47.6641 57.278 47.472 57.5124 47.2637 57.7402C47.0553 57.9681 46.834 58.1699 46.5996 58.3457C46.3717 58.5215 46.1309 58.6615 45.877 58.7656C45.623 58.8698 45.3626 58.9219 45.0957 58.9219C44.7051 58.9219 44.4186 58.8047 44.2363 58.5703C44.054 58.3359 43.9629 58.0332 43.9629 57.6621C43.9629 57.6361 43.9629 57.5807 43.9629 57.4961C43.9694 57.4049 43.9792 57.3333 43.9922 57.2812C43.6667 57.6914 43.3542 58.0299 43.0547 58.2969C42.7617 58.5638 42.4753 58.7754 42.1953 58.9316C41.9219 59.0879 41.6549 59.1953 41.3945 59.2539C41.1406 59.319 40.8965 59.3516 40.6621 59.3516C40.4147 59.3516 40.1803 59.3092 39.959 59.2246C39.7441 59.1465 39.5553 59.0293 39.3926 58.873C39.2233 58.7168 39.0931 58.5247 39.002 58.2969C38.9043 58.069 38.8555 57.8053 38.8555 57.5059C38.8555 57.1348 38.9401 56.7116 39.1094 56.2363C39.2721 55.7546 39.5651 55.237 39.9883 54.6836C40.3464 54.2083 40.7174 53.8079 41.1016 53.4824C41.4922 53.1569 41.873 52.8965 42.2441 52.7012C42.6217 52.4993 42.9798 52.3561 43.3184 52.2715C43.6569 52.1868 43.9596 52.1445 44.2266 52.1445C44.8255 52.1445 45.278 52.2454 45.584 52.4473C45.89 52.6426 46.0755 52.9453 46.1406 53.3555C46.2708 53.1927 46.4076 53.0299 46.5508 52.8672C46.694 52.7044 46.8405 52.5384 46.9902 52.3691L47.3027 52.5059ZM44.3047 56.2168C44.3893 56.0801 44.4935 55.9076 44.6172 55.6992C44.7409 55.4844 44.8711 55.2663 45.0078 55.0449C45.1445 54.8171 45.278 54.599 45.4082 54.3906C45.5384 54.1823 45.6523 54.0065 45.75 53.8633C45.75 53.8047 45.7402 53.7103 45.7207 53.5801C45.7077 53.4499 45.6654 53.3197 45.5938 53.1895C45.5221 53.0527 45.4082 52.9355 45.252 52.8379C45.0957 52.7402 44.8776 52.6914 44.5977 52.6914C44.3958 52.6914 44.168 52.724 43.9141 52.7891C43.6667 52.8477 43.3997 52.9518 43.1133 53.1016C42.8333 53.2448 42.5436 53.4368 42.2441 53.6777C41.9447 53.9186 41.6452 54.2181 41.3457 54.5762C40.8965 55.1165 40.5482 55.6602 40.3008 56.207C40.0599 56.7474 39.9395 57.2357 39.9395 57.6719C39.9395 58.043 40.0241 58.3294 40.1934 58.5312C40.3626 58.7331 40.6035 58.834 40.916 58.834C41.2741 58.834 41.6094 58.7559 41.9219 58.5996C42.2344 58.4368 42.5273 58.2285 42.8008 57.9746C43.0742 57.7207 43.3346 57.4408 43.582 57.1348C43.8294 56.8223 44.0703 56.5163 44.3047 56.2168ZM53.9531 54.5664C53.7057 54.5078 53.4909 54.4264 53.3086 54.3223C53.1328 54.2116 52.9896 54.0879 52.8789 53.9512C52.7682 53.8145 52.6868 53.6712 52.6348 53.5215C52.5827 53.3652 52.5566 53.2122 52.5566 53.0625C52.5566 52.737 52.6478 52.4863 52.8301 52.3105C53.0124 52.1283 53.2402 52.0371 53.5137 52.0371C53.696 52.0371 53.8522 52.0859 53.9824 52.1836C54.1126 52.2747 54.2201 52.3984 54.3047 52.5547C54.3893 52.7109 54.4512 52.8932 54.4902 53.1016C54.5293 53.3034 54.5488 53.515 54.5488 53.7363C54.5488 53.8861 54.5423 54.0358 54.5293 54.1855C54.5163 54.3288 54.4935 54.4753 54.4609 54.625C54.3047 55.3281 54.0736 55.9661 53.7676 56.5391C53.4681 57.1055 53.1263 57.5938 52.7422 58.0039C52.3646 58.4076 51.9609 58.7201 51.5312 58.9414C51.1016 59.1562 50.6816 59.2637 50.2715 59.2637C49.9915 59.2637 49.7246 59.2246 49.4707 59.1465C49.2233 59.0684 49.002 58.9382 48.8066 58.7559C48.6178 58.5736 48.4681 58.3359 48.3574 58.043C48.2467 57.7435 48.1914 57.3757 48.1914 56.9395C48.1914 56.3991 48.2956 55.7546 48.5039 55.0059C48.7188 54.2572 49.0801 53.3783 49.5879 52.3691C50.3171 50.9564 51.0495 49.6901 51.7852 48.5703C52.0977 48.0951 52.4264 47.6296 52.7715 47.1738C53.1165 46.7181 53.4616 46.3112 53.8066 45.9531C54.1582 45.5951 54.5033 45.3086 54.8418 45.0938C55.1868 44.8724 55.5124 44.7617 55.8184 44.7617C55.8574 44.7617 55.9258 44.7682 56.0234 44.7812C56.1276 44.7943 56.2318 44.8301 56.3359 44.8887C56.4401 44.9408 56.5312 45.0254 56.6094 45.1426C56.694 45.2533 56.7363 45.4095 56.7363 45.6113C56.7363 45.8522 56.6712 46.1582 56.541 46.5293C56.4173 46.8939 56.2285 47.3008 55.9746 47.75C55.7272 48.1927 55.418 48.668 55.0469 49.1758C54.6823 49.6771 54.2591 50.1816 53.7773 50.6895C53.3021 51.1973 52.7715 51.6953 52.1855 52.1836C51.6061 52.6719 50.9746 53.1276 50.291 53.5508C50.0632 54.0456 49.8711 54.4948 49.7148 54.8984C49.5651 55.2956 49.4447 55.6569 49.3535 55.9824C49.2624 56.3014 49.1973 56.5846 49.1582 56.832C49.1191 57.0794 49.0996 57.2943 49.0996 57.4766C49.0996 57.7305 49.1322 57.9421 49.1973 58.1113C49.2689 58.2741 49.3633 58.4043 49.4805 58.502C49.5977 58.5931 49.7311 58.6582 49.8809 58.6973C50.0306 58.7363 50.1868 58.7559 50.3496 58.7559C50.6556 58.7559 50.9518 58.6777 51.2383 58.5215C51.5312 58.3652 51.8079 58.1634 52.0684 57.916C52.3288 57.6621 52.5664 57.3789 52.7812 57.0664C53.0026 56.7539 53.1947 56.4447 53.3574 56.1387C53.5202 55.8262 53.6536 55.5332 53.7578 55.2598C53.862 54.9798 53.9271 54.7487 53.9531 54.5664ZM50.7012 52.6621C51.3001 52.252 51.8503 51.819 52.3516 51.3633C52.8594 50.9076 53.3184 50.4518 53.7285 49.9961C54.1387 49.5339 54.5 49.0846 54.8125 48.6484C55.125 48.2057 55.3854 47.7923 55.5938 47.4082C55.8021 47.0241 55.9583 46.6823 56.0625 46.3828C56.1732 46.0768 56.2285 45.8294 56.2285 45.6406C56.2285 45.4714 56.1667 45.3867 56.043 45.3867C55.8086 45.3867 55.5254 45.5137 55.1934 45.7676C54.8678 46.0215 54.487 46.4349 54.0508 47.0078C53.6211 47.5807 53.1263 48.3294 52.5664 49.2539C52.013 50.1784 51.3913 51.3145 50.7012 52.6621ZM54.0215 54.0586C54.028 54 54.0312 53.9414 54.0312 53.8828C54.0378 53.8242 54.041 53.7689 54.041 53.7168C54.041 53.3652 53.9954 53.082 53.9043 52.8672C53.8132 52.6523 53.6829 52.5449 53.5137 52.5449C53.4746 52.5449 53.429 52.5514 53.377 52.5645C53.3314 52.571 53.2826 52.5938 53.2305 52.6328C53.1849 52.6654 53.1458 52.7142 53.1133 52.7793C53.0807 52.8444 53.0645 52.929 53.0645 53.0332C53.0645 53.3001 53.1556 53.5215 53.3379 53.6973C53.5267 53.8665 53.7546 53.987 54.0215 54.0586ZM62.4883 44.791C62.7161 44.791 62.9049 44.8464 63.0547 44.957C63.2109 45.0677 63.2891 45.2695 63.2891 45.5625C63.2891 45.7643 63.2467 46.0052 63.1621 46.2852C63.084 46.5651 62.9733 46.8711 62.8301 47.2031C62.6934 47.5286 62.5306 47.8737 62.3418 48.2383C62.153 48.5964 61.9479 48.9544 61.7266 49.3125C61.5117 49.6706 61.2839 50.0189 61.043 50.3574C60.8086 50.696 60.5742 51.0085 60.3398 51.2949C59.8711 51.8743 59.4642 52.3626 59.1191 52.7598C58.7806 53.1569 58.4876 53.4954 58.2402 53.7754C57.9928 54.0488 57.7845 54.2734 57.6152 54.4492C57.446 54.6185 57.2962 54.765 57.166 54.8887C57.0358 55.0124 56.9154 55.1263 56.8047 55.2305C56.694 55.3281 56.5801 55.4388 56.4629 55.5625C56.4108 55.8099 56.3848 56.0475 56.3848 56.2754C56.3913 56.4967 56.3945 56.7018 56.3945 56.8906C56.3945 57.457 56.4857 57.877 56.668 58.1504C56.8503 58.4238 57.1074 58.5605 57.4395 58.5605C57.6608 58.5605 57.8822 58.5052 58.1035 58.3945C58.3314 58.2773 58.556 58.1276 58.7773 57.9453C58.9987 57.763 59.2135 57.5579 59.4219 57.3301C59.6302 57.0957 59.8255 56.8613 60.0078 56.627C60.1966 56.3861 60.3659 56.1549 60.5156 55.9336C60.6654 55.7122 60.7956 55.5202 60.9062 55.3574L61.2676 55.6309C61.248 55.6569 61.1829 55.7611 61.0723 55.9434C60.9681 56.1191 60.8281 56.334 60.6523 56.5879C60.4766 56.8418 60.2682 57.1152 60.0273 57.4082C59.7865 57.6947 59.526 57.9616 59.2461 58.209C58.9661 58.4564 58.6699 58.6615 58.3574 58.8242C58.0514 58.987 57.7389 59.0684 57.4199 59.0684C57.153 59.0684 56.8958 59.0195 56.6484 58.9219C56.4076 58.8177 56.1927 58.6582 56.0039 58.4434C55.8216 58.222 55.6719 57.9421 55.5547 57.6035C55.444 57.265 55.3887 56.8581 55.3887 56.3828C55.3887 55.7904 55.457 55.1719 55.5938 54.5273C55.737 53.8763 55.929 53.2253 56.1699 52.5742C56.4108 51.9167 56.694 51.2689 57.0195 50.6309C57.3451 49.9928 57.6901 49.3874 58.0547 48.8145C58.4258 48.235 58.8099 47.7012 59.207 47.2129C59.6107 46.7181 60.0046 46.2917 60.3887 45.9336C60.7793 45.5755 61.1536 45.2956 61.5117 45.0938C61.8698 44.8919 62.1953 44.791 62.4883 44.791ZM56.6387 54.6934C57.1921 54.1204 57.7259 53.541 58.2402 52.9551C58.7611 52.3626 59.2461 51.7799 59.6953 51.207C60.151 50.6276 60.5677 50.0677 60.9453 49.5273C61.3229 48.9805 61.6452 48.4661 61.9121 47.9844C62.179 47.5026 62.3874 47.0632 62.5371 46.666C62.6868 46.2689 62.7617 45.9271 62.7617 45.6406C62.7617 45.5885 62.7357 45.5202 62.6836 45.4355C62.6315 45.3444 62.5697 45.2988 62.498 45.2988C62.2962 45.2988 62.0293 45.4323 61.6973 45.6992C61.3652 45.9661 61.0039 46.3307 60.6133 46.793C60.2292 47.2487 59.8288 47.7826 59.4121 48.3945C59.002 49.0065 58.6146 49.6608 58.25 50.3574C57.8854 51.054 57.5599 51.7734 57.2734 52.5156C56.987 53.2578 56.7754 53.9837 56.6387 54.6934ZM61.6484 56.7734C61.6354 56.8516 61.6257 56.9297 61.6191 57.0078C61.6126 57.0859 61.6094 57.1641 61.6094 57.2422C61.6094 57.4766 61.6419 57.7012 61.707 57.916C61.7786 58.1243 61.8796 58.3099 62.0098 58.4727C62.1465 58.6289 62.3125 58.7526 62.5078 58.8438C62.7096 58.9349 62.9375 58.9805 63.1914 58.9805C64.0443 58.9805 64.8678 58.6908 65.6621 58.1113C66.4564 57.5319 67.2474 56.6139 68.0352 55.3574L68.3672 55.6504C67.9375 56.3665 67.5013 56.972 67.0586 57.4668C66.6159 57.9551 66.1732 58.3522 65.7305 58.6582C65.2943 58.9642 64.8646 59.1855 64.4414 59.3223C64.0182 59.459 63.6146 59.5273 63.2305 59.5273C62.9505 59.5273 62.6543 59.4883 62.3418 59.4102C62.0293 59.332 61.7396 59.2018 61.4727 59.0195C61.2122 58.8372 60.9974 58.5931 60.8281 58.2871C60.6523 57.9811 60.5645 57.6003 60.5645 57.1445C60.5645 56.6562 60.6491 56.1875 60.8184 55.7383C60.9811 55.2826 61.196 54.8594 61.4629 54.4688C61.7298 54.0781 62.0358 53.7233 62.3809 53.4043C62.7259 53.0788 63.0742 52.8021 63.4258 52.5742C63.7839 52.3464 64.1322 52.1706 64.4707 52.0469C64.8092 51.9167 65.1087 51.8516 65.3691 51.8516C65.5384 51.8516 65.7109 51.8776 65.8867 51.9297C66.0625 51.9818 66.2188 52.0632 66.3555 52.1738C66.4987 52.2845 66.6126 52.431 66.6973 52.6133C66.7884 52.7956 66.834 53.0137 66.834 53.2676C66.834 53.6126 66.7526 53.9382 66.5898 54.2441C66.4336 54.5436 66.222 54.8236 65.9551 55.084C65.6882 55.3379 65.3789 55.569 65.0273 55.7773C64.6758 55.9792 64.3079 56.1517 63.9238 56.2949C63.5397 56.4382 63.1523 56.5521 62.7617 56.6367C62.3711 56.7214 62 56.7669 61.6484 56.7734ZM61.7266 56.3535C62.1628 56.3079 62.5729 56.2168 62.957 56.0801C63.3411 55.9434 63.6927 55.7773 64.0117 55.582C64.3307 55.3802 64.6139 55.1621 64.8613 54.9277C65.1152 54.6934 65.3268 54.4557 65.4961 54.2148C65.6654 53.974 65.7956 53.7428 65.8867 53.5215C65.9779 53.3001 66.0234 53.1016 66.0234 52.9258C66.0234 52.75 65.9746 52.61 65.877 52.5059C65.7858 52.4017 65.6751 52.3496 65.5449 52.3496C65.2585 52.3496 64.9362 52.4538 64.5781 52.6621C64.2201 52.8639 63.862 53.1471 63.5039 53.5117C63.1458 53.8698 62.8073 54.293 62.4883 54.7812C62.1758 55.2695 61.9219 55.7936 61.7266 56.3535Z" fill="#292929"/>
<circle cx="53" cy="24" r="23.5" stroke="black" stroke-opacity="0.33"/>
</svg>
