<svg width="66" height="69" viewBox="0 0 66 69" fill="none" xmlns="http://www.w3.org/2000/svg">
<g clip-path="url(#clip0)">
<path d="M63.7279 30.6176L43.5477 50.7991C42.9825 51.3636 42.2314 51.6744 41.429 51.6744H18.111L10.7759 59.0101L1.10938 49.3429L14.5907 35.8708C15.7321 34.7714 17.2297 34.1668 18.8069 34.1668L46.9773 34.1616C47.8657 34.1616 48.7056 34.567 49.2832 35.2741L49.4192 35.441C49.7741 35.9444 49.9693 36.5286 49.9693 37.1522C49.9693 37.952 49.6578 38.7037 49.0926 39.2689C48.5288 39.8334 47.7783 40.1449 46.9786 40.1449C46.9786 40.1449 46.9779 40.1449 46.9773 40.1449H33.6682C33.1983 40.1449 32.8172 40.5253 32.8172 40.9959C32.8172 41.4664 33.1983 41.8469 33.6682 41.8469H46.9773C46.9779 41.8469 46.9786 41.8469 46.9786 41.8469C48.2318 41.8469 49.41 41.3586 50.2972 40.4721C51.1837 39.585 51.6713 38.4061 51.6713 37.1522C51.6713 36.3347 51.4544 35.533 51.0536 34.8286L59.4965 26.385C60.6268 25.254 62.5982 25.254 63.7279 26.385C64.2924 26.9508 64.6051 27.7019 64.6051 28.5009C64.6051 29.3013 64.293 30.0525 63.7279 30.6176Z" fill="#BCA49C"/>
<path d="M49.4089 27.7209C49.5403 27.3799 48.9679 27.1407 48.9679 27.1407C44.2608 24.6527 45.0731 16.0553 38.2578 10.4624C29.483 3.2614 19.7842 8.62566 19.7842 8.62566C19.7842 8.62566 17.8266 9.23812 17.9114 10.6878C17.983 11.9107 18.8084 11.9363 19.706 11.316C23.1363 8.6572 27.0713 8.00269 28.4506 8.0224C30.6757 8.05394 36.3745 9.18554 37.9352 18.3172C37.9352 18.3172 35.2225 10.3526 29.0039 9.91234C28.7417 9.91234 27.8947 9.98529 27.9072 10.9611C27.8658 13.9183 28.8876 19.0052 32.5617 23.3995C37.6434 29.4794 45.0658 28.911 48.5336 28.2223C48.8306 28.1527 49.2755 28.06 49.4089 27.7209Z" fill="#BCA49C"/>
</g>
<defs>
<clipPath id="clip0">
<rect width="65.7143" height="69" fill="white"/>
</clipPath>
</defs>
</svg>
