<svg width="68" height="67" viewBox="0 0 68 67" fill="none" xmlns="http://www.w3.org/2000/svg">
<g clip-path="url(#clip0)">
<path d="M18.7922 32.8889H4.71618C4.2531 32.8889 3.87842 32.5135 3.87842 32.0511C3.87842 31.5887 4.25378 31.2133 4.71618 31.2133H18.7922C19.2553 31.2133 19.6299 31.5887 19.6299 32.0511C19.6299 32.5135 19.2553 32.8889 18.7922 32.8889Z" fill="#BCA49C"/>
<path d="M22.319 26.4166H8.24303C7.77995 26.4166 7.40527 26.0413 7.40527 25.5789C7.40527 25.1158 7.78063 24.7411 8.24303 24.7411H22.319C22.7821 24.7411 23.1568 25.1165 23.1568 25.5789C23.1568 26.042 22.7821 26.4166 22.319 26.4166Z" fill="#BCA49C"/>
<path d="M22.319 39.3597H8.24303C7.77995 39.3597 7.40527 38.9844 7.40527 38.522C7.40527 38.0596 7.78063 37.6842 8.24303 37.6842H22.319C22.7821 37.6842 23.1568 38.0596 23.1568 38.522C23.1568 38.9844 22.7821 39.3597 22.319 39.3597Z" fill="#BCA49C"/>
<path d="M45.075 53.6465C43.5777 53.6465 42.0762 53.4861 40.6135 53.1699C40.1042 53.0597 39.7805 52.5572 39.8907 52.0479C40.0009 51.5385 40.5027 51.2183 41.012 51.325C42.3441 51.6133 43.7109 51.7595 45.075 51.7595C50.1635 51.7595 54.9527 49.7828 58.5601 46.1931C62.1927 42.5782 64.1939 37.7651 64.1939 32.64C64.1939 27.5515 62.2172 22.7623 58.6274 19.1549C55.0132 15.5223 50.2002 13.5211 45.075 13.5211C39.9859 13.5211 35.1967 15.4979 31.5893 19.0876C27.9567 22.7025 25.9561 27.5155 25.9561 32.6413C25.9561 37.7298 27.9329 42.519 31.5226 46.1264C31.8939 46.4923 31.917 47.107 31.5512 47.4783C31.1853 47.8502 30.606 47.872 30.2347 47.5068L30.1817 47.4531C26.2417 43.4935 24.0698 38.2316 24.0698 32.6407C24.0698 27.0096 26.2683 21.7205 30.2592 17.7493C34.2229 13.8053 39.4847 11.6334 45.0757 11.6334C50.7068 11.6334 55.9951 13.8319 59.9663 17.8228C63.9103 21.7865 66.0823 27.0483 66.0823 32.6386C66.0823 38.2697 63.8845 43.5574 59.8929 47.5293C55.9278 51.4739 50.666 53.6465 45.075 53.6465Z" fill="#BCA49C"/>
<path d="M31.765 48.5262C31.7235 48.5262 31.6827 48.5228 31.6412 48.5153L28.0046 47.8693C27.6197 47.8013 27.3633 47.4341 27.4313 47.0485C27.5 46.6636 27.8706 46.408 28.2521 46.476L31.002 46.9642L30.8184 44.0524C30.7939 43.6621 31.0897 43.3262 31.4801 43.3017C31.8609 43.2725 32.2063 43.5737 32.2308 43.9634L32.4715 47.7741C32.4851 47.991 32.3987 48.2018 32.2362 48.3466C32.1057 48.4629 31.9377 48.5262 31.765 48.5262Z" fill="#BCA49C"/>
<path d="M45.0743 17.6072C36.7851 17.6072 30.0415 24.3508 30.0415 32.64C30.0415 40.9292 36.7857 47.6734 45.0743 47.6734C53.3635 47.6734 60.1077 40.9299 60.1077 32.64C60.107 24.3508 53.3635 17.6072 45.0743 17.6072ZM46.5648 33.8001C46.5648 34.0809 46.4234 34.3427 46.1881 34.4964C46.0507 34.5862 45.8916 34.6324 45.7325 34.6324C45.6189 34.6324 45.5061 34.61 45.3993 34.563L36.579 30.7108C36.1581 30.5266 35.9657 30.0363 36.1493 29.6147C36.3329 29.1938 36.8245 29.0013 37.2454 29.1849L44.8995 32.5278V25.0845C44.8995 24.6248 45.2721 24.2522 45.7318 24.2522C46.1915 24.2522 46.5641 24.6248 46.5641 25.0845V33.8001H46.5648Z" fill="#BCA49C"/>
</g>
<defs>
<clipPath id="clip0">
<rect width="68" height="66.64" fill="white"/>
</clipPath>
</defs>
</svg>
