<svg width="64" height="77" viewBox="0 0 64 77" fill="none" xmlns="http://www.w3.org/2000/svg">
<g clip-path="url(#clip0)">
<path d="M17.3518 50.0305C20.6945 46.6892 14.0084 38.3345 14.0084 38.3345C12.3391 48.3598 17.3518 50.0305 17.3518 50.0305Z" fill="#BCA49C"/>
<path d="M20.3282 44.9553C21.0603 41.9268 20.8253 40.3667 20.3282 38.9505C19.6496 37.0094 16.8826 31.4829 16.8826 31.4829C12.9677 43.7546 20.3282 44.9553 20.3282 44.9553Z" fill="#BCA49C"/>
<path d="M22.7815 38.2191C25.3414 35.3471 24.6614 31.4836 24.6614 31.4836L21.7379 23.9639C21.7379 23.9639 19.858 28.298 19.3352 31.8493C18.8145 35.3999 22.7815 38.2191 22.7815 38.2191Z" fill="#BCA49C"/>
<path d="M27.2199 30.8558C30.0446 28.2278 30.3012 23.9632 30.3012 23.9632C30.459 21.0926 28.3684 15.0878 28.3684 15.0878C26.1242 18.0641 23.6714 24.7989 23.6714 24.7989C22.8858 29.0809 27.2199 30.8558 27.2199 30.8558Z" fill="#BCA49C"/>
<path d="M32.8598 23.7032C36.6711 20.3077 36.6196 18.1163 36.6196 18.1163L36.1496 10.0237L31.7634 16.3413C28.527 20.4669 32.8598 23.7032 32.8598 23.7032Z" fill="#BCA49C"/>
<path d="M38.8652 17.2292C42.7815 15.5057 42.8844 12.7386 42.8844 12.7386V6.21103L38.1846 12.2158C35.8347 15.0885 38.8652 17.2292 38.8652 17.2292Z" fill="#BCA49C"/>
<path d="M44.8173 12.0601C50.0385 8.09166 49.9335 1.82687 49.15 2.92257C48.3678 4.01826 45.078 7.36097 45.078 7.36097C42.6773 10.1795 44.8173 12.0601 44.8173 12.0601Z" fill="#BCA49C"/>
<path d="M18.8208 50.3364C18.8208 50.3364 20.7772 54.2228 28.9782 48.2208C28.9782 48.2208 20.303 45.8486 18.8208 50.3364Z" fill="#BCA49C"/>
<path d="M26.0785 42.0582C24.5997 42.3057 23.1209 42.8556 20.8218 44.958C20.8218 44.958 23.5909 51.5294 32.442 42.1694C32.4427 42.1694 28.1079 41.7141 26.0785 42.0582Z" fill="#BCA49C"/>
<path d="M23.5942 38.4618C23.5942 38.4618 27.288 41.6327 30.6071 40.2708C33.9269 38.906 38.1567 35.0141 38.1567 35.0141H29.6783C29.6783 35.0141 25.7641 35.2866 23.5942 38.4618Z" fill="#BCA49C"/>
<path d="M34.3776 27.4478C34.3776 27.4478 30.204 28.3599 28.0439 31.5546C28.0439 31.5546 30.4655 35.5626 34.5743 34.1283C34.5743 34.1283 41.7519 30.4359 44.3473 27.7592C44.3473 27.7592 37.1912 26.8492 34.3776 27.4478Z" fill="#BCA49C"/>
<path d="M33.5898 24.1482C33.5898 24.1482 36.5717 28.6617 40.8787 25.6666L48.3866 21.0752L39.3853 20.7165C39.3853 20.7165 37.1995 20.5392 33.5898 24.1482Z" fill="#BCA49C"/>
<path d="M40.0874 17.8028C40.0874 17.8028 41.6204 20.5559 44.9638 18.9471L53.6244 15.0879H45.253C45.253 15.0885 42.6827 14.4003 40.0874 17.8028Z" fill="#BCA49C"/>
<path d="M45.792 12.6698C45.792 12.6698 46.6694 14.647 50.2095 13.5576C50.2095 13.5576 55.1972 11.0805 56.5112 10.7961C57.83 10.5097 50.9701 8.96764 45.792 12.6698Z" fill="#BCA49C"/>
<path d="M48.8889 10.0244C56.5108 7.88169 59.3314 2.3476 59.3314 2.3476C47.739 6.57812 48.8889 10.0244 48.8889 10.0244Z" fill="#BCA49C"/>
<path d="M17.9225 50.4894C17.9225 50.4894 14.0632 57.0691 15.7339 71.5836C15.7339 71.5836 16.8824 72.5236 17.0396 71.0086C17.1953 69.4951 14.6354 64.3323 18.4558 51.5107C18.4551 51.5107 19.1357 50.4546 17.9225 50.4894Z" fill="#BCA49C"/>
</g>
<defs>
<clipPath id="clip0">
<rect width="64" height="75.781" fill="white" transform="translate(0 0.609497)"/>
</clipPath>
</defs>
</svg>
